<svg width="17" height="19" viewBox="0 0 17 19" fill="none" xmlns="http://www.w3.org/2000/svg">
<path d="M16.9875 13.1074C16.9607 12.9531 16.893 12.8221 16.7853 12.7141C16.5464 12.4751 16.2689 12.4249 15.953 12.5636C15.1053 12.9567 14.2265 13.1531 13.3172 13.1531C12.1765 13.1531 11.1246 12.8721 10.1613 12.3094C9.19794 11.7468 8.4351 10.9839 7.87253 10.0204C7.30975 9.05704 7.02854 8.0051 7.02854 6.8644C7.02854 5.97815 7.20399 5.13615 7.55455 4.33844C7.9052 3.54078 8.41198 2.84139 9.07469 2.24022C9.32909 2.00141 9.38699 1.72389 9.24827 1.40786C9.11724 1.092 8.8822 0.941776 8.54313 0.957121C7.36401 1.00332 6.24651 1.26744 5.19064 1.74895C4.13481 2.23059 3.2273 2.86435 2.46814 3.65059C1.70906 4.43667 1.10786 5.36735 0.664692 6.44241C0.221645 7.51755 0 8.64469 0 9.82381C0 11.0261 0.235088 12.1744 0.705182 13.2688C1.1754 14.3632 1.80725 15.3073 2.60111 16.1011C3.39489 16.8947 4.33896 17.5266 5.43346 17.9969C6.52784 18.4669 7.67599 18.7021 8.87819 18.7021C10.6047 18.7021 12.1979 18.2339 13.6583 17.2975C15.1187 16.3612 16.2112 15.1107 16.9357 13.5462C16.9974 13.4076 17.0147 13.2613 16.9875 13.1074ZM12.04 16.5112C11.042 16.9854 9.98807 17.2223 8.87819 17.2223C7.87633 17.2223 6.91885 17.0258 6.00551 16.6328C5.09229 16.2399 4.30608 15.7139 3.6471 15.0548C2.98828 14.396 2.46239 13.6099 2.06919 12.6966C1.67614 11.7833 1.4796 10.8258 1.4796 9.82389C1.4796 8.16694 1.97096 6.68726 2.95358 5.38468C3.93612 4.0823 5.20206 3.19985 6.7511 2.73745C5.94959 4.00905 5.54878 5.38468 5.54878 6.86448C5.54878 8.26724 5.89554 9.56581 6.58926 10.7606C7.28278 11.955 8.22694 12.8989 9.42157 13.5928C10.616 14.2864 11.9144 14.6332 13.3172 14.6332C13.7487 14.6332 14.1727 14.5986 14.5889 14.5291C13.8877 15.3769 13.0379 16.0376 12.04 16.5112Z" fill="white"/>
</svg>
