<svg width="18" height="18" viewBox="0 0 18 18" fill="none" xmlns="http://www.w3.org/2000/svg">
<path d="M12.3194 6.08016C11.5279 5.28861 10.4104 4.77643 9.19976 4.77643C7.98915 4.77643 6.87166 5.26533 6.0801 6.08016C5.28855 6.87172 4.77637 7.98921 4.77637 9.19982C4.77637 10.4104 5.28855 11.5279 6.0801 12.3195C6.87166 13.111 7.98915 13.6232 9.19976 13.6232C10.4104 13.6232 11.5279 13.1343 12.3194 12.3195C13.111 11.5279 13.6232 10.4104 13.6232 9.19982C13.6232 7.98921 13.1342 6.87172 12.3194 6.08016ZM11.4813 11.4814C10.8993 12.0634 10.0844 12.4126 9.19976 12.4126C8.31508 12.4126 7.50025 12.0634 6.91822 11.4814C6.33619 10.8993 5.98698 10.0845 5.98698 9.19982C5.98698 8.31514 6.33619 7.50031 6.91822 6.91828C7.50025 6.33626 8.31508 5.98704 9.19976 5.98704C10.0844 5.98704 10.8993 6.33626 11.4813 6.91828C12.0633 7.50031 12.4125 8.31514 12.4125 9.19982C12.4125 10.0845 12.0633 10.8993 11.4813 11.4814Z" fill="#04183B"/>
<path d="M17.394 8.59454H15.6014C15.2755 8.59454 14.9961 8.87392 14.9961 9.19985C14.9961 9.52578 15.2755 9.80516 15.6014 9.80516H17.394C17.72 9.80516 17.9993 9.52578 17.9993 9.19985C17.9993 8.87392 17.72 8.59454 17.394 8.59454Z" fill="#04183B"/>
<path d="M9.20003 14.9969C8.8741 14.9969 8.59473 15.2763 8.59473 15.6022V17.3948C8.59473 17.7208 8.8741 18.0001 9.20003 18.0001C9.52597 18.0001 9.80534 17.7208 9.80534 17.3948V15.6022C9.80534 15.2763 9.52597 14.9969 9.20003 14.9969Z" fill="#04183B"/>
<path d="M15.4152 14.5778L14.1348 13.2973C13.9253 13.0645 13.5295 13.0645 13.2967 13.2973C13.0639 13.5302 13.0639 13.9027 13.2967 14.1355L14.5771 15.4159C14.8099 15.6487 15.1824 15.6487 15.4152 15.4159C15.6481 15.1831 15.6481 14.8106 15.4152 14.5778Z" fill="#04183B"/>
<path d="M9.20003 0.399658C8.8741 0.399658 8.59473 0.67903 8.59473 1.00496V2.7976C8.59473 3.12354 8.8741 3.40291 9.20003 3.40291C9.52597 3.40291 9.80534 3.12354 9.80534 2.7976V1.00496C9.80534 0.67903 9.52597 0.399658 9.20003 0.399658Z" fill="#04183B"/>
<path d="M15.4392 2.98381C15.2064 2.751 14.8339 2.751 14.6011 2.98381L13.3206 4.26427C13.0878 4.49708 13.0878 4.86957 13.3206 5.10238C13.5301 5.33519 13.9259 5.33519 14.1587 5.10238L15.4392 3.82193C15.672 3.58912 15.672 3.21662 15.4392 2.98381Z" fill="#04183B"/>
<path d="M2.79736 8.59454H1.00472C0.678786 8.59454 0.399414 8.87392 0.399414 9.19985C0.399414 9.52578 0.655505 9.80516 1.00472 9.80516H2.79736C3.12329 9.80516 3.40266 9.52578 3.40266 9.19985C3.40266 8.87392 3.12329 8.59454 2.79736 8.59454Z" fill="#04183B"/>
<path d="M5.07882 13.2973C4.8693 13.0645 4.47352 13.0645 4.24071 13.2973L2.96025 14.5778C2.72744 14.8106 2.72744 15.1831 2.96025 15.4159C3.19306 15.6487 3.56556 15.6487 3.79837 15.4159L5.07882 14.1355C5.31163 13.9027 5.31163 13.5302 5.07882 13.2973Z" fill="#04183B"/>
<path d="M5.07882 4.26427L3.79837 2.98381C3.56556 2.751 3.19306 2.751 2.96025 2.98381C2.72744 3.21662 2.72744 3.58912 2.96025 3.82193L4.24071 5.10238C4.47352 5.33519 4.84601 5.33519 5.07882 5.10238C5.31163 4.86957 5.31163 4.49708 5.07882 4.26427Z" fill="#04183B"/>
</svg>
